<?xml version="1.0" standalone="no"?><!DOCTYPE svg PUBLIC "-//W3C//DTD SVG 1.1//EN" "http://www.w3.org/Graphics/SVG/1.1/DTD/svg11.dtd"><svg t="1768464348902" class="icon" viewBox="0 0 1024 1024" version="1.1" xmlns="http://www.w3.org/2000/svg" p-id="8959" xmlns:xlink="http://www.w3.org/1999/xlink" width="200" height="200"><path d="M62.836364 77.575758m29.478788 0l176.717575 0q29.478788 0 29.478788 29.478787l0 176.717576q0 29.478788-29.478788 29.478788l-176.717575 0q-29.478788 0-29.478788-29.478788l0-176.717576q0-29.478788 29.478788-29.478787Z" p-id="8960" fill="#ffffff"></path><path d="M372.053333 77.575758m29.478788 0l530.152727 0q29.478788 0 29.478788 29.478787l0 176.717576q0 29.478788-29.478788 29.478788l-530.152727 0q-29.478788 0-29.478788-29.478788l0-176.717576q0-29.478788 29.478788-29.478787Z" p-id="8961" fill="#ffffff"></path><path d="M62.836364 386.792727m29.478788 0l176.717575 0q29.478788 0 29.478788 29.478788l0 176.717576q0 29.478788-29.478788 29.478788l-176.717575 0q-29.478788 0-29.478788-29.478788l0-176.717576q0-29.478788 29.478788-29.478788Z" p-id="8962" fill="#ffffff"></path><path d="M372.053333 386.792727m29.478788 0l530.152727 0q29.478788 0 29.478788 29.478788l0 176.717576q0 29.478788-29.478788 29.478788l-530.152727 0q-29.478788 0-29.478788-29.478788l0-176.717576q0-29.478788 29.478788-29.478788Z" p-id="8963" fill="#ffffff"></path><path d="M62.836364 710.749091m29.478788 0l176.717575 0q29.478788 0 29.478788 29.478788l0 176.717576q0 29.478788-29.478788 29.478787l-176.717575 0q-29.478788 0-29.478788-29.478787l0-176.717576q0-29.478788 29.478788-29.478788Z" p-id="8964" fill="#ffffff"></path><path d="M372.053333 710.749091m29.478788 0l530.152727 0q29.478788 0 29.478788 29.478788l0 176.717576q0 29.478788-29.478788 29.478787l-530.152727 0q-29.478788 0-29.478788-29.478787l0-176.717576q0-29.478788 29.478788-29.478788Z" p-id="8965" fill="#ffffff"></path></svg>