<?xml version="1.0" standalone="no"?><!DOCTYPE svg PUBLIC "-//W3C//DTD SVG 1.1//EN" "http://www.w3.org/Graphics/SVG/1.1/DTD/svg11.dtd"><svg t="1768463532961" class="icon" viewBox="0 0 1024 1024" version="1.1" xmlns="http://www.w3.org/2000/svg" p-id="6937" xmlns:xlink="http://www.w3.org/1999/xlink" width="200" height="200"><path d="M917.333333 170.666667H106.666667c-12.8 0-21.333333 8.533333-21.333334 21.333333v256c0 12.8 8.533333 21.333333 21.333334 21.333333h810.666666c12.8 0 21.333333-8.533333 21.333334-21.333333V192c0-12.8-8.533333-21.333333-21.333334-21.333333z m-320 85.333333v128h-170.666666v-128h170.666666zM170.666667 256h170.666666v128H170.666667v-128z m682.666666 128h-170.666666v-128h170.666666v128zM917.333333 554.666667H106.666667c-12.8 0-21.333333 8.533333-21.333334 21.333333v256c0 12.8 8.533333 21.333333 21.333334 21.333333h810.666666c12.8 0 21.333333-8.533333 21.333334-21.333333V576c0-12.8-8.533333-21.333333-21.333334-21.333333z m-320 85.333333v128h-170.666666v-128h170.666666zM170.666667 640h170.666666v128H170.666667v-128z m682.666666 128h-170.666666v-128h170.666666v128z" fill="#515151" p-id="6938"></path></svg>